<?xml version="1.0" encoding="UTF-8" standalone="no"?>
<!-- Created with Inkscape (http://www.inkscape.org/) -->

<svg
   xmlns:dc="http://purl.org/dc/elements/1.1/"
   xmlns:cc="http://creativecommons.org/ns#"
   xmlns:rdf="http://www.w3.org/1999/02/22-rdf-syntax-ns#"
   xmlns:svg="http://www.w3.org/2000/svg"
   xmlns="http://www.w3.org/2000/svg"
   xmlns:xlink="http://www.w3.org/1999/xlink"
   xmlns:sodipodi="http://sodipodi.sourceforge.net/DTD/sodipodi-0.dtd"
   xmlns:inkscape="http://www.inkscape.org/namespaces/inkscape"
   width="153mm"
   height="35mm"
   viewBox="0 0 153 35"
   version="1.1"
   id="svg8"
   inkscape:version="0.92.5 (2060ec1f9f, 2020-04-08)"
   sodipodi:docname="wave.svg">
  <defs
     id="defs2">
    <linearGradient
       inkscape:collect="always"
       id="linearGradient838">
      <stop
         style="stop-color:#046a43;stop-opacity:1;"
         offset="0"
         id="stop834" />
      <stop
         style="stop-color:#03472d;stop-opacity:1"
         offset="1"
         id="stop836" />
    </linearGradient>
    <inkscape:path-effect
       effect="spiro"
       id="path-effect4748"
       is_visible="true" />
    <inkscape:path-effect
       effect="spiro"
       id="path-effect4720"
       is_visible="true" />
    <inkscape:path-effect
       effect="spiro"
       id="path-effect4712"
       is_visible="true" />
    <inkscape:path-effect
       effect="spiro"
       id="path-effect3773"
       is_visible="true" />
    <inkscape:path-effect
       effect="spiro"
       id="path-effect3773-3"
       is_visible="true" />
    <linearGradient
       inkscape:collect="always"
       xlink:href="#linearGradient838"
       id="linearGradient840"
       x1="211.70274"
       y1="44.572708"
       x2="212.98708"
       y2="171.85193"
       gradientUnits="userSpaceOnUse" />
  </defs>
  <sodipodi:namedview
     id="base"
     pagecolor="#ffffff"
     bordercolor="#666666"
     borderopacity="1.0"
     inkscape:pageopacity="0.0"
     inkscape:pageshadow="2"
     inkscape:zoom="1.4142136"
     inkscape:cx="178.24525"
     inkscape:cy="5.4786059"
     inkscape:document-units="mm"
     inkscape:current-layer="layer1"
     showgrid="false"
     inkscape:snap-bbox="false"
     inkscape:snap-grids="true"
     inkscape:snap-object-midpoints="false"
     showguides="false"
     inkscape:window-width="1920"
     inkscape:window-height="1013"
     inkscape:window-x="0"
     inkscape:window-y="0"
     inkscape:window-maximized="1">
    <inkscape:grid
       type="xygrid"
       id="grid3715" />
  </sodipodi:namedview>
  <metadata
     id="metadata5">
    <rdf:RDF>
      <cc:Work
         rdf:about="">
        <dc:format>image/svg+xml</dc:format>
        <dc:type
           rdf:resource="http://purl.org/dc/dcmitype/StillImage" />
        <dc:title></dc:title>
      </cc:Work>
    </rdf:RDF>
  </metadata>
  <g
     inkscape:label="Layer 1"
     inkscape:groupmode="layer"
     id="layer1"
     transform="translate(0,-262)">
    <path
       style="fill:url(#linearGradient840);fill-opacity:1;fill-rule:nonzero;stroke-width:3.77952766"
       d="M -131.63086 44.548828 C -173.49036 44.352091 -215.13323 48.575488 -255.18945 57.195312 C -259.9136 58.211892 -266.99306 59.854194 -270.92188 60.84375 L -278.06641 62.642578 L -278.19531 110.02148 L -278.32227 157.40039 L 10.957031 157.40039 L 11.314453 157.40039 L 11.314453 157.74023 L 300.59375 157.74023 L 589.875 157.74023 L 589.74609 110.35938 L 589.61914 62.980469 L 582.47461 61.181641 C 578.54579 60.192085 571.46633 58.551736 566.74219 57.535156 C 495.53113 42.211024 419.30623 40.777004 345.76367 53.380859 C 331.8056 55.77301 319.83912 58.403666 299.70508 63.466797 C 299.67359 63.376774 299.63854 63.327671 299.60352 63.335938 C 299.25459 63.417953 294.94508 64.455365 290.02734 65.640625 C 233.42412 79.283472 171.63442 84.035386 110.44727 79.453125 C 78.432452 77.055544 46.25338 71.850608 16.146484 64.199219 C -6.9185437 58.337474 -19.212232 55.613463 -34.210938 53.042969 C -66.385813 47.528782 -99.07347 44.701846 -131.63086 44.548828 z "
       transform="matrix(0.26458333,0,0,0.26458333,0,262)"
       id="path3829" />
  </g>
</svg>
